<svg width="118" height="20" viewBox="0 0 118 20" fill="none" xmlns="http://www.w3.org/2000/svg">
<path d="M27.2644 3.576V15H28.7044V5.496H28.7364L32.3044 15H33.6004L37.1684 5.496H37.2004V15H38.6404V3.576H36.5604L32.9444 13.176L29.3444 3.576H27.2644ZM44.1939 16.088L47.7939 6.728H46.3539L44.0339 13.496H44.0019L41.5859 6.728H40.0499L43.3299 14.952L42.7699 16.344C42.6419 16.5893 42.4925 16.776 42.3219 16.904C42.1512 17.032 41.9272 17.096 41.6499 17.096C41.5112 17.096 41.3725 17.0747 41.2339 17.032C41.1059 16.9893 40.9779 16.9467 40.8499 16.904V18.152C40.9992 18.2053 41.1539 18.2427 41.3139 18.264C41.4739 18.2853 41.6339 18.296 41.7939 18.296C42.1032 18.296 42.3699 18.2533 42.5939 18.168C42.8179 18.0933 43.0205 17.9653 43.2019 17.784C43.3939 17.6133 43.5645 17.3893 43.7139 17.112C43.8739 16.8347 44.0339 16.4933 44.1939 16.088ZM56.343 9.128L52.375 15H54.071L57.239 10.28L60.311 15H62.167L58.151 9.128L61.927 3.576H60.231L57.255 8.04L54.407 3.576H52.583L56.343 9.128ZM64.9243 8.488V4.856H67.9643C68.2949 4.856 68.6043 4.87733 68.8923 4.92C69.1909 4.952 69.4523 5.032 69.6763 5.16C69.9003 5.288 70.0763 5.46933 70.2043 5.704C70.3323 5.93867 70.3963 6.25867 70.3963 6.664C70.3963 7.272 70.2043 7.73067 69.8203 8.04C69.4469 8.33867 68.8283 8.488 67.9643 8.488H64.9243ZM63.4043 3.576V15H68.9243C69.4896 15 69.9856 14.9093 70.4123 14.728C70.8496 14.536 71.2123 14.2907 71.5003 13.992C71.7989 13.6827 72.0229 13.3307 72.1723 12.936C72.3216 12.5413 72.3963 12.136 72.3963 11.72C72.3963 11.016 72.2096 10.4187 71.8363 9.928C71.4629 9.43733 70.9243 9.11733 70.2203 8.968V8.936C70.7643 8.72267 71.1803 8.39733 71.4683 7.96C71.7669 7.512 71.9163 6.984 71.9163 6.376C71.9163 5.8 71.7829 5.31467 71.5163 4.92C71.2603 4.52533 70.9456 4.216 70.5723 3.992C70.4016 3.88533 70.1936 3.80533 69.9483 3.752C69.7136 3.69867 69.4576 3.66133 69.1803 3.64C68.9029 3.608 68.6203 3.592 68.3323 3.592C68.0549 3.58133 67.7936 3.576 67.5483 3.576H63.4043ZM64.9243 13.72V9.768H68.3963C68.7163 9.768 69.0256 9.8 69.3243 9.864C69.6229 9.91733 69.8843 10.0187 70.1083 10.168C70.3429 10.3067 70.5296 10.4987 70.6683 10.744C70.8069 10.9893 70.8763 11.2987 70.8763 11.672C70.8763 12.312 70.6843 12.8133 70.3003 13.176C69.9269 13.5387 69.4043 13.72 68.7323 13.72H64.9243ZM75.2374 9.288C75.2374 8.712 75.312 8.14667 75.4614 7.592C75.6107 7.02667 75.8454 6.52 76.1654 6.072C76.4854 5.624 76.896 5.26667 77.3974 5C77.8987 4.72267 78.496 4.584 79.1894 4.584C79.8827 4.584 80.48 4.72267 80.9814 5C81.4827 5.26667 81.8934 5.624 82.2134 6.072C82.5334 6.52 82.768 7.02667 82.9174 7.592C83.0667 8.14667 83.1414 8.712 83.1414 9.288C83.1414 9.864 83.0667 10.4347 82.9174 11C82.768 11.5547 82.5334 12.056 82.2134 12.504C81.8934 12.952 81.4827 13.3147 80.9814 13.592C80.48 13.8587 79.8827 13.992 79.1894 13.992C78.496 13.992 77.8987 13.8587 77.3974 13.592C76.896 13.3147 76.4854 12.952 76.1654 12.504C75.8454 12.056 75.6107 11.5547 75.4614 11C75.312 10.4347 75.2374 9.864 75.2374 9.288ZM73.7174 9.288C73.7174 10.0667 73.8294 10.8187 74.0534 11.544C74.288 12.2587 74.6347 12.8933 75.0934 13.448C75.552 14.0027 76.1227 14.4453 76.8054 14.776C77.488 15.096 78.2827 15.256 79.1894 15.256C80.096 15.256 80.8907 15.096 81.5734 14.776C82.256 14.4453 82.8267 14.0027 83.2854 13.448C83.744 12.8933 84.0854 12.2587 84.3094 11.544C84.544 10.8187 84.6614 10.0667 84.6614 9.288C84.6614 8.50933 84.544 7.76267 84.3094 7.048C84.0854 6.32267 83.744 5.68267 83.2854 5.128C82.8267 4.57333 82.256 4.13067 81.5734 3.8C80.8907 3.46933 80.096 3.304 79.1894 3.304C78.2827 3.304 77.488 3.46933 76.8054 3.8C76.1227 4.13067 75.552 4.57333 75.0934 5.128C74.6347 5.68267 74.288 6.32267 74.0534 7.048C73.8294 7.76267 73.7174 8.50933 73.7174 9.288ZM89.2336 9.128L85.2656 15H86.9616L90.1296 10.28L93.2016 15H95.0576L91.0416 9.128L94.8176 3.576H93.1216L90.1456 8.04L87.2976 3.576H85.4736L89.2336 9.128Z" fill="white" fill-opacity="0.5"/>
<path fill-rule="evenodd" clip-rule="evenodd" d="M17.6666 6.66668C17.6666 9.08334 16.4167 11.1666 14.5 12.3333C17.8334 13.5 20.3334 16.4167 21 20H19.3333C18.5 16.1666 15.0833 13.3333 11 13.3333C6.9167 13.3333 3.5 16.1667 2.66668 20H1C1.66664 16.5 4.16664 13.5833 7.49996 12.3333C5.5833 11.1667 4.33332 9.08334 4.33332 6.66668C4.33332 3 7.33336 0 11 0C14.6666 0 17.6667 3 17.6666 6.66668ZM11 1.66668C8.25002 1.66668 6 3.9167 6 6.66668C6 9.41666 8.25002 11.6667 11 11.6667C13.75 11.6667 16 9.41666 16 6.66668C16 3.9167 13.75 1.66668 11 1.66668Z" fill="#8DD83D"/>
<path d="M116.877 8.12648C116.712 7.95784 116.443 7.95784 116.278 8.12648L111.006 13.5125L105.724 8.12648C105.558 7.95784 105.289 7.95784 105.124 8.12648C104.959 8.29513 104.959 8.56917 105.124 8.73781L110.696 14.419C110.778 14.5033 110.882 14.5455 110.995 14.5455C111.099 14.5455 111.213 14.5033 111.295 14.419L116.867 8.73781C117.043 8.56917 117.043 8.29513 116.877 8.12648Z" fill="#91DC5A"/>
</svg>
